<?xml version="1.0" encoding="utf-8"?>
<!-- Generator: Adobe Illustrator 16.0.0, SVG Export Plug-In . SVG Version: 6.00 Build 0)  -->
<!DOCTYPE svg PUBLIC "-//W3C//DTD SVG 1.1//EN" "http://www.w3.org/Graphics/SVG/1.1/DTD/svg11.dtd">
<svg version="1.1" xmlns="http://www.w3.org/2000/svg" xmlns:xlink="http://www.w3.org/1999/xlink" x="0px" y="0px"
	 width="200px" height="263px" viewBox="0 0 200.098 263.098"
	 xml:space="preserve">
<g id="Layer_1" >
	<g>
		<g>
			<path fill-rule="evenodd" clip-rule="evenodd" d="M102.949,33.173c0,7.167-0.023,14.333,0.008,21.499
				c0.02,4.314-1.205,9.169,4.538,11.173c10.669,18.26,27.978,30.406,42.108,45.466c14.135,15.063,29.148,29.297,43.727,43.946
				c6.257,6.287,6.201,12.289-0.152,18.652c-27.791,27.832-55.604,55.645-83.438,83.435c-6.254,6.243-12.293,6.172-18.652-0.179
				c-27.711-27.677-55.405-55.371-83.084-83.079c-6.7-6.707-6.63-12.529,0.199-19.365c26.858-26.88,53.681-53.796,80.669-80.544
				c3.413-3.383,4.178-8.721,8.864-11.108c0.6-0.306,0.304-2.507,0.305-3.83c0.016-17.666-0.016-35.332,0.053-52.998
				c0.007-1.671-1.201-4.201,2.373-4.234c3.558-0.033,2.43,2.461,2.445,4.169C102.991,15.173,102.949,24.174,102.949,33.173z"/>
			<path fill-rule="evenodd" clip-rule="evenodd" fill="#FEFEFE" d="M98.051,104.761c0,4.665,0.036,9.33-0.009,13.995
				c-0.046,4.791-1.109,8.681-3.795,13.325c-4.753,8.221-11.946,13.609-17.753,20.486c-1.561,1.848-3.208,2.853-5.964,2.571
				c-4.225-0.431-7.361,1.756-8.893,5.804c-1.553,4.104-0.424,7.697,3.065,10.125c1.949,1.356,2.406,2.791,2.383,4.926
				c-0.084,7.662-0.076,15.327-0.005,22.99c0.02,2.108-0.369,3.56-2.345,4.94c-3.663,2.561-4.772,6.326-2.915,10.563
				c1.83,4.174,5.266,6.196,9.647,5.257c2.442-0.523,3.668,0.274,5.112,1.767c3.012,3.111,6.09,6.161,9.181,9.196
				c2.592,2.544,4.991,4.708,4.525,9.233c-0.429,4.159,2.886,6.992,7.023,7.859c3.985,0.834,7.274-0.774,9.376-4.222
				c2.128-3.487,2.128-7.438-0.873-10.103c-2.832-2.514-2.916-5.256-2.876-8.412c0.053-4.165,0.125-8.334-0.018-12.494
				c-0.145-4.164-0.299-7.863,4.316-10.407c2.85-1.571,3.67-5.349,2.316-8.504c-1.194-2.786-0.176-4.236,1.671-5.973
				c3.397-3.194,6.677-6.518,9.903-9.885c2.851-2.975,5.186-5.69,10.386-4.051c4.475,1.411,9.091-3.245,9.456-8.059
				c0.383-5.034-3.529-9.825-8.648-9.515c-3.498,0.213-5.526-1.106-7.652-3.397c-3.171-3.417-6.584-6.607-9.858-9.931
				c-2.403-2.439-5.282-4.488-5.384-8.543c-0.031-1.275-1.178-3.23-2.281-3.651c-5.046-1.925-4.219-5.998-4.207-9.918
				c0.037-11.995,0.047-23.99-0.016-35.985c-0.013-2.28,0.175-3.895,2.654-5.183c2.891-1.501,3.609,0.793,4.811,1.99
				c25.848,25.751,51.643,51.556,77.436,77.361c4.838,4.839,4.854,6.312,0.088,11.08c-27.322,27.34-54.653,54.671-81.994,81.991
				c-4.558,4.555-6.236,4.573-10.72,0.094c-27.46-27.438-54.91-54.886-82.346-82.347c-4.313-4.317-4.337-6.118-0.103-10.358
				c26.253-26.287,52.521-52.561,78.831-78.793c0.896-0.894,1.553-2.915,3.462-1.817c1.684,0.969,3.18,1.922,3.095,4.504
				C97.896,90.428,98.051,97.597,98.051,104.761z"/>
			<path fill-rule="evenodd" clip-rule="evenodd" fill="#FEFEFE" d="M98.051,166.841c0,3.997,0.034,7.994-0.009,11.99
				c-0.046,4.335,0.632,8.441-3.925,11.867c-3.848,2.892-2.837,8.983,1.342,12.162c2.174,1.654,2.688,3.34,2.635,5.807
				c-0.129,5.992-0.053,11.989-0.035,17.985c0.005,1.658,0.181,3.131-1.941,3.988c-2.101,0.85-3.357,0.335-4.773-1.179
				c-2.614-2.796-5.403-5.429-8.09-8.158c-2.794-2.839-6.285-5.052-4.456-10.321c1.001-2.887-1.139-6.041-3.973-7.402
				c-2.668-1.281-2.956-3.041-2.916-5.533c0.112-6.992,0.079-13.988,0.017-20.982c-0.021-2.398,0.149-4.124,2.796-5.591
				c3.819-2.117,5.388-5.98,3.666-10.289c-0.958-2.397-0.073-3.646,1.48-5.141c3.72-3.578,7.274-7.329,11.012-10.888
				c0.947-0.901,1.677-3.136,3.436-1.955c1.754,1.176,4.002,2.012,3.832,5.159C97.816,154.505,98.051,160.679,98.051,166.841z"/>
			<path fill-rule="evenodd" clip-rule="evenodd" fill="#FDFDFD" d="M107.396,143.242c1.393,0.082,2.029,1.161,2.832,1.955
				c3.658,3.615,7.289,7.259,10.923,10.898c3.043,3.048,3.355,11.343,0.38,14.404c-4.971,5.115-10.057,10.122-15.13,15.138
				c-0.76,0.751-1.446,2.112-2.847,1.289c-1.021-0.601-0.589-1.79-0.591-2.722c-0.026-11.78,0.192-23.566-0.138-35.338
				C102.72,145.059,106.006,145.159,107.396,143.242z"/>
		</g>
	</g>
</g>
<g id="Layer_2">
	<circle cx="100.834" cy="136.667" r="11"/>
	<circle cx="70.834" cy="165" r="11"/>
	<circle cx="70.833" cy="211" r="11"/>
	<circle cx="100.833" cy="239.334" r="11"/>
	<circle cx="100.833" cy="195" r="11"/>
	<circle cx="131.833" cy="165" r="11.001"/>
	<circle cx="100.833" cy="71.999" r="12.667"/>
</g>
<g id="Layer_3">
	<rect x="97" width="7" height="233.322"/>
</g>
</svg>
